<?xml version="1.0" encoding="UTF-8"?>
<svg xmlns="http://www.w3.org/2000/svg" xmlns:xlink="http://www.w3.org/1999/xlink" width="24px" height="24px" viewBox="0 0 24 24" version="1.1">
<g id="surface1">
<path style=" stroke:none;fill-rule:nonzero;fill:rgb(0%,0%,0%);fill-opacity:1;" d="M 9.582031 0.246094 C 10.007812 0.160156 10.429688 0.0976562 10.847656 0.0546875 C 11.277344 0.015625 11.703125 -0.00390625 12.121094 0 C 12.359375 0 12.546875 0.195312 12.546875 0.429688 C 12.542969 0.613281 12.429688 0.765625 12.269531 0.828125 C 10.484375 1.53125 9.054688 2.839844 8.175781 4.464844 C 7.3125 6.058594 6.984375 7.957031 7.378906 9.871094 L 7.378906 9.882812 C 7.828125 12.042969 9.105469 13.820312 10.8125 14.945312 C 12.519531 16.070312 14.652344 16.542969 16.8125 16.101562 L 16.828125 16.097656 C 18.382812 15.777344 19.734375 15.027344 20.792969 13.992188 C 21.886719 12.925781 22.660156 11.554688 23.003906 10.054688 C 23.058594 9.824219 23.289062 9.683594 23.515625 9.734375 C 23.691406 9.777344 23.816406 9.917969 23.84375 10.082031 C 24.359375 13.246094 23.578125 16.347656 21.878906 18.816406 C 20.183594 21.273438 17.574219 23.105469 14.421875 23.753906 C 11.175781 24.421875 7.96875 23.710938 5.402344 22.023438 C 2.835938 20.332031 0.917969 17.664062 0.25 14.417969 C -0.402344 11.25 0.257812 8.113281 1.863281 5.582031 C 3.472656 3.039062 6.03125 1.101562 9.164062 0.339844 C 9.222656 0.324219 9.292969 0.308594 9.371094 0.292969 Z M 9.582031 0.246094 "/>
</g>
</svg>
